<?xml version="1.0" standalone="no"?>
<!DOCTYPE svg PUBLIC "-//W3C//DTD SVG 20010904//EN"
 "http://www.w3.org/TR/2001/REC-SVG-20010904/DTD/svg10.dtd">
<svg version="1.0" xmlns="http://www.w3.org/2000/svg"
 width="1024.000000pt" height="1024.000000pt" viewBox="0 0 1024.000000 1024.000000"
 preserveAspectRatio="xMidYMid meet">

<g transform="translate(0.000000,1024.000000) scale(0.100000,-0.100000)"
fill="#000000" stroke="none">
<path d="M4695 6783 c0 -84 -1 -88 -23 -91 -16 -3 -42 13 -88 52 l-64 55 -48
-16 c-26 -9 -51 -19 -56 -24 -4 -4 3 -41 17 -82 25 -76 25 -82 -5 -105 -14
-11 -30 -10 -98 4 l-81 18 -49 -49 -49 -48 45 -54 c46 -57 46 -61 11 -107 -8
-12 -46 -29 -88 -41 l-74 -20 -37 -70 c-21 -39 -36 -74 -35 -79 2 -5 24 -17
50 -25 52 -18 51 -16 42 -70 -5 -32 -18 -49 -68 -92 -34 -29 -66 -56 -71 -60
-10 -9 -35 -123 -36 -166 l0 -31 47 14 c70 21 73 20 73 -32 0 -38 -10 -64 -50
-135 l-51 -88 3 -86 3 -85 52 35 c29 19 56 35 61 35 4 0 13 -12 19 -27 10 -25
11 -23 12 29 1 32 6 60 13 65 6 4 116 46 242 93 l231 86 -3 54 c-11 208 130
403 273 376 43 -8 109 -65 135 -115 10 -20 23 -62 30 -94 10 -48 15 -57 28
-52 14 5 350 128 485 177 26 10 27 12 27 89 0 43 -2 79 -5 79 -4 0 -18 -6 -33
-14 -62 -31 -70 -30 -82 11 -10 33 -7 49 19 127 l31 89 -21 71 -21 71 -42 -48
c-22 -26 -46 -47 -53 -47 -22 0 -32 60 -27 158 l5 97 -36 49 c-20 26 -40 44
-45 40 -4 -5 -15 -30 -25 -56 -38 -103 -72 -82 -99 59 -16 80 -21 91 -49 110
-62 42 -64 41 -77 -34 -14 -86 -20 -96 -53 -88 -20 6 -34 24 -63 85 -38 82
-47 90 -114 90 l-35 0 0 -87z"/>
<path d="M5563 6136 c4 -10 7 -37 7 -61 l0 -43 73 29 c39 15 80 28 90 29 40 0
12 18 -55 33 -40 10 -84 20 -97 24 -20 5 -23 3 -18 -11z"/>
<path d="M5668 6038 c-76 -32 -98 -45 -98 -60 0 -22 -2 -22 128 24 72 26 82
33 82 54 0 13 -3 24 -7 23 -5 0 -52 -18 -105 -41z"/>
<path d="M5675 5949 c-148 -55 -436 -160 -640 -233 -714 -259 -905 -330 -897
-337 4 -3 223 -66 486 -139 264 -72 496 -138 516 -145 30 -11 42 -10 71 2 96
40 1364 527 1649 633 63 23 118 46 123 50 4 3 -93 33 -215 65 -123 32 -349 91
-503 131 -154 41 -289 74 -300 73 -11 0 -141 -45 -290 -100z"/>
<path d="M4743 5825 c-36 -15 -62 -65 -70 -135 -7 -61 -7 -61 105 -18 l84 31
-5 40 c-6 41 -36 82 -66 90 -10 2 -32 -1 -48 -8z"/>
<path d="M3555 5725 c-148 -51 -279 -96 -290 -99 -10 -3 -17 -7 -14 -10 6 -7
576 -166 593 -166 14 0 111 178 102 187 -4 4 -30 -1 -58 -10 -29 -9 -54 -15
-56 -12 -2 2 0 49 5 104 6 68 5 101 -2 100 -5 0 -131 -43 -280 -94z"/>
<path d="M6915 5735 c-73 -31 -239 -98 -1337 -537 l-378 -151 0 -138 c0 -77 4
-139 8 -139 10 0 181 69 877 353 264 107 581 236 705 285 l225 90 3 136 c2
106 0 136 -10 135 -7 -1 -49 -16 -93 -34z"/>
<path d="M3230 5482 l0 -128 293 -88 c160 -48 300 -90 310 -92 16 -5 17 4 15
121 l-3 127 -284 83 c-156 46 -294 88 -307 94 l-24 11 0 -128z"/>
<path d="M4120 5225 l0 -133 78 -26 c143 -47 957 -296 968 -296 2 0 3 61 2
136 l-3 137 -400 118 c-220 66 -455 137 -522 158 l-123 39 0 -133z"/>
<path d="M4053 5225 c-7 -22 -19 -70 -27 -107 -15 -65 -15 -68 10 -140 14 -40
27 -74 28 -75 3 -3 62 76 79 104 5 8 -4 18 -30 30 l-38 18 -5 105 c-5 101 -6
103 -17 65z"/>
<path d="M4200 4989 c8 -14 9 -55 5 -128 l-7 -106 37 -45 c20 -25 40 -46 44
-47 3 -2 19 29 34 67 16 39 34 70 41 70 30 0 48 -30 71 -119 13 -51 25 -94 27
-96 8 -9 101 -45 105 -41 2 2 9 39 16 82 12 78 12 79 43 82 29 3 34 -2 74 -72
46 -81 53 -85 127 -70 l29 6 -9 68 c-11 80 -7 97 27 106 19 4 39 -4 85 -36
l61 -43 46 30 c25 17 42 33 38 35 -5 3 -85 29 -179 58 -93 28 -290 90 -437
136 -146 46 -272 84 -278 84 -8 0 -8 -6 0 -21z"/>
<path d="M3730 4225 c0 -39 -3 -45 -20 -45 -35 0 -126 -36 -173 -69 -66 -45
-121 -136 -141 -233 -5 -23 -12 -27 -44 -30 -30 -2 -38 -7 -40 -25 -3 -19 1
-23 23 -23 37 0 65 -17 65 -40 0 -40 42 -129 81 -174 57 -64 117 -97 222 -120
24 -6 27 -11 27 -46 0 -38 2 -40 29 -40 28 0 30 3 33 42 l3 42 59 13 c135 30
240 143 262 281 7 42 7 42 50 42 44 0 49 5 38 34 -4 11 -19 16 -44 16 -36 0
-38 1 -44 42 -9 58 -61 152 -107 193 -48 43 -125 83 -178 91 -41 7 -41 7 -41
50 0 42 -1 44 -30 44 -29 0 -30 -2 -30 -45z m177 -161 c53 -31 107 -93 121
-143 20 -65 17 -71 -31 -71 -50 0 -57 -4 -50 -31 4 -15 14 -19 49 -19 39 0 44
-3 44 -22 -1 -39 -39 -111 -83 -156 -36 -36 -123 -82 -157 -82 -6 0 -10 23
-10 50 0 49 -1 50 -30 50 -29 0 -30 -1 -30 -50 0 -41 -3 -50 -17 -50 -27 0
-114 43 -151 75 -37 31 -78 105 -83 150 -4 29 -3 30 44 33 42 3 47 5 47 28 0
22 -4 24 -45 24 -41 0 -45 2 -45 24 0 37 27 93 68 138 38 43 120 88 160 88 20
0 22 -5 22 -45 0 -43 1 -45 30 -45 29 0 30 1 30 49 l0 49 38 -10 c20 -5 56
-21 79 -34z"/>
<path d="M3710 3865 l-44 -45 39 -40 c21 -22 44 -40 50 -40 5 0 30 19 53 41
l44 41 -43 44 c-24 24 -46 44 -49 44 -3 0 -26 -20 -50 -45z"/>
<path d="M2624 4185 c-3 -6 -3 -168 -2 -360 l3 -350 58 -2 57 -1 0 103 0 103
188 4 c169 3 191 5 227 25 52 28 79 57 107 118 28 63 30 151 5 217 -22 57 -91
123 -144 137 -50 14 -494 19 -499 6z m494 -121 c54 -35 70 -154 29 -215 -36
-54 -54 -59 -239 -59 l-168 0 0 145 0 144 138 4 c166 4 210 1 240 -19z"/>
<path d="M7180 4185 c-110 -31 -199 -107 -248 -213 -23 -49 -27 -70 -27 -152
0 -87 3 -101 33 -162 98 -202 337 -274 545 -165 181 95 244 348 132 528 -36
57 -121 126 -183 149 -75 28 -181 34 -252 15z m183 -119 c58 -21 101 -55 137
-108 28 -41 34 -59 38 -123 4 -66 2 -81 -23 -130 -41 -84 -136 -145 -228 -145
-91 0 -193 67 -233 155 -93 198 106 423 309 351z"/>
<path d="M4360 4174 c-78 -34 -114 -97 -108 -190 5 -77 39 -134 101 -166 38
-20 61 -23 227 -28 102 -4 193 -10 203 -14 24 -11 47 -58 47 -96 0 -35 -46
-89 -77 -91 -10 0 -124 -1 -253 -2 l-235 -2 -3 -57 -3 -58 248 0 c240 0 250 1
298 24 85 40 125 103 125 196 0 89 -63 173 -149 199 -22 6 -105 11 -190 11
-161 0 -199 9 -221 49 -17 33 -11 78 13 107 l23 26 242 -1 242 -2 0 56 0 55
-247 0 c-198 -1 -255 -4 -283 -16z"/>
<path d="M5072 3833 l3 -358 53 -3 52 -3 0 360 0 361 -55 0 -55 0 2 -357z"/>
<path d="M5370 3830 l0 -360 55 0 55 0 0 105 0 105 173 0 c130 0 185 4 219 15
159 55 211 289 94 423 -59 67 -81 72 -353 72 l-243 0 0 -360z m495 228 c55
-43 69 -121 36 -194 -32 -71 -42 -74 -243 -74 l-178 0 0 145 0 145 179 0 c168
0 180 -1 206 -22z"/>
<path d="M6160 3830 l0 -360 55 0 55 0 0 120 0 120 108 0 107 0 100 -120 100
-120 73 0 73 0 -101 118 c-55 66 -100 122 -100 125 0 3 14 8 31 12 43 10 108
71 132 125 57 127 -8 287 -132 329 -22 7 -120 11 -267 11 l-234 0 0 -360z
m506 216 c30 -30 34 -40 34 -87 0 -63 -26 -114 -66 -129 -15 -6 -99 -9 -193
-8 l-166 3 -3 128 -3 127 182 0 181 0 34 -34z"/>
</g>
</svg>
